<svg version="1.1" id="Layer_1" xmlns="http://www.w3.org/2000/svg" xmlns:xlink="http://www.w3.org/1999/xlink" x="0px" y="0px"
	 width="100%" viewBox="0 0 1024 1024" enable-background="new 0 0 1024 1024" xml:space="preserve">
<path fill="#000000" opacity="1.000000" stroke="none" 
	d="
M518.448486,346.750458 
	C532.064941,346.698181 545.227783,346.745209 558.389587,346.644012 
	C562.371826,346.613403 563.782593,348.033600 562.893127,352.097412 
	C556.455933,381.508972 550.226624,410.966187 543.730103,440.364471 
	C538.867737,462.367310 524.614929,474.777832 502.893433,478.975830 
	C486.063629,482.228485 469.416718,481.613586 453.295227,475.248749 
	C444.558411,471.799438 437.445312,466.216644 432.537842,457.827301 
	C431.762604,458.375519 431.097412,458.640778 430.737427,459.130432 
	C420.942535,472.453613 406.994690,477.760864 391.277527,479.958984 
	C378.341095,481.768158 365.614990,480.641235 353.220062,477.060913 
	C336.825073,472.325165 328.541351,456.813385 331.212097,437.202332 
	C333.664642,419.193634 338.844910,401.752686 342.299225,383.950928 
	C344.358673,373.337311 346.772888,362.792511 348.828522,352.178192 
	C349.613678,348.124115 351.152496,346.346283 355.786591,346.502472 
	C368.269104,346.923157 380.774445,346.667877 393.270721,346.679047 
	C399.406006,346.684540 399.679352,347.037933 398.406464,352.912537 
	C392.770752,378.921844 387.082916,404.920258 381.588440,430.959442 
	C380.666718,435.327545 380.401520,439.868195 380.203430,444.345490 
	C380.001404,448.910522 382.554474,451.812164 386.760223,453.322266 
	C396.213135,456.716400 405.712646,453.331055 410.994202,444.705811 
	C414.717621,438.625244 416.227356,431.796173 417.706482,424.952393 
	C423.047974,400.237915 428.435333,375.533264 433.698669,350.802185 
	C434.341156,347.783417 435.795013,346.613525 438.818054,346.677856 
	C444.313538,346.794800 449.815826,346.759827 455.311707,346.632782 
	C458.973572,346.548126 460.425537,347.624908 459.527924,351.659027 
	C454.939453,372.280914 450.566284,392.950684 446.113892,413.602875 
	C445.868866,414.739319 445.505127,415.856110 445.338776,417.002655 
	C444.382507,423.595154 445.310760,424.721680 451.897705,424.765137 
	C459.895172,424.817902 467.893280,424.769867 475.890961,424.799896 
	C483.345184,424.827911 483.445099,425.046753 481.801239,432.572052 
	C480.666351,437.767548 479.251343,442.936371 479.321869,448.320770 
	C479.372894,452.217285 479.336456,456.604980 484.220673,457.471130 
	C489.171478,458.349060 491.306732,454.473022 492.596252,450.523315 
	C496.270386,439.269409 498.138580,427.573792 500.668762,416.043915 
	C505.447205,394.268921 510.071686,372.460083 514.737000,350.660339 
	C515.145996,348.749054 515.774353,347.128265 518.448486,346.750458 
z"/>
<path fill="#000000" opacity="1.000000" stroke="none" 
	d="
M260.545349,436.397644 
	C257.707703,449.326965 254.875336,461.828064 252.322647,474.385956 
	C251.636826,477.759888 250.267288,479.246155 246.718719,479.207245 
	C233.889938,479.066650 221.057816,479.034973 208.229294,479.174927 
	C203.866043,479.222534 202.672562,477.692657 203.655991,473.445496 
	C207.109238,458.531921 210.354858,443.569977 213.636414,428.617004 
	C219.270721,402.943054 224.958328,377.280121 230.393768,351.563995 
	C231.185593,347.817627 232.817581,346.621429 236.414642,346.645996 
	C249.410339,346.734802 262.409180,346.749512 275.402924,346.544312 
	C280.503845,346.463776 279.685760,349.335083 278.988617,352.456543 
	C275.943573,366.090271 272.891296,379.722412 269.874786,393.362457 
	C268.722443,398.573151 269.506592,399.622467 274.920074,399.625580 
	C287.538849,399.632782 285.033569,400.908142 287.612366,389.546478 
	C290.520844,376.732239 293.216675,363.869293 295.934753,351.012665 
	C296.568085,348.016815 297.905365,346.292175 301.276184,346.339966 
	C314.100677,346.521729 326.927155,346.559204 339.752777,346.663239 
	C345.281189,346.708099 345.854919,347.413727 344.666443,352.858795 
	C335.797485,393.493073 326.895477,434.120209 318.076752,474.765381 
	C317.395203,477.906555 315.898926,479.257629 312.633759,479.228271 
	C299.637756,479.111420 286.639526,479.066925 273.643951,479.189545 
	C269.601410,479.227692 268.838196,477.631958 269.661194,473.980804 
	C272.917969,459.532562 276.013062,445.047760 279.135315,430.569397 
	C280.339539,424.985260 279.658722,424.177704 273.874908,424.004730 
	C263.262360,423.687256 263.262360,423.687256 260.545349,436.397644 
z"/>
<path fill="#000000" opacity="1.000000" stroke="none" 
	d="
M604.584229,748.739136 
	C574.761597,760.472046 544.188660,766.668335 512.541138,766.173340 
	C450.996399,765.210632 396.491730,744.847046 349.360809,705.175781 
	C326.340668,685.799072 307.155792,663.117310 292.104401,637.009521 
	C290.857849,634.847168 289.759949,632.598328 288.617737,630.376953 
	C287.244354,627.705994 287.961487,625.431519 290.303101,623.829224 
	C292.805328,622.116943 295.412994,622.333923 297.549042,624.553040 
	C298.568573,625.612244 299.293884,626.982178 300.033783,628.279114 
	C329.073029,679.179565 370.727356,715.812500 424.935242,737.934631 
	C459.273010,751.947815 495.301086,757.749878 532.104431,754.383423 
	C601.558350,748.030518 658.268677,716.832031 702.610107,663.063843 
	C732.959412,626.262451 751.634338,584.111023 757.300171,536.899780 
	C764.171631,479.642914 753.563538,425.525055 723.844971,375.581604 
	C714.426331,359.753082 703.372742,345.201782 690.733032,331.848267 
	C688.793884,329.799561 688.136047,327.855133 688.750793,325.133331 
	C689.359009,322.440857 689.540100,319.651917 690.612610,316.706055 
	C746.963135,371.977966 773.245056,439.524933 770.009033,517.949097 
	C765.817566,619.526917 700.688293,710.769653 604.584229,748.739136 
z"/>
<path fill="#000000" opacity="1.000000" stroke="none" 
	d="
M667.166687,526.059082 
	C674.341248,521.429016 681.776672,518.915710 690.037964,518.845703 
	C708.685669,518.687683 718.102234,528.482910 715.007080,546.777344 
	C711.791931,565.781128 707.121155,584.538269 703.106750,603.407532 
	C702.638550,605.608154 701.208740,606.373047 699.139282,606.371399 
	C688.311584,606.362671 677.483765,606.332275 666.656189,606.366882 
	C661.885803,606.382141 663.356995,603.135193 663.840332,600.772644 
	C667.175171,584.471680 670.637024,568.196716 674.060730,551.913940 
	C675.565918,544.755432 674.538086,541.083313 670.650940,539.765137 
	C667.100098,538.561035 660.962646,542.091492 658.625061,546.945923 
	C655.623474,553.179749 655.041504,560.091858 653.560120,566.731018 
	C650.916260,578.580627 648.562073,590.497742 646.288635,602.425171 
	C645.701111,605.507141 644.199768,606.644165 641.237854,606.641846 
	C630.758118,606.633789 620.278381,606.701843 609.798767,606.761414 
	C606.536255,606.779968 605.277283,605.355347 605.996704,602.065613 
	C611.649597,576.216980 617.269958,550.361145 622.863586,524.499634 
	C623.465820,521.715332 625.108643,520.714600 627.845398,520.744324 
	C635.675415,520.829529 643.507629,520.864441 651.337219,520.769470 
	C654.428772,520.732056 655.783264,522.158569 656.439941,525.041443 
	C656.901917,527.069641 656.932190,529.410278 659.080383,531.095032 
	C662.118408,530.356262 664.171875,527.753540 667.166687,526.059082 
z"/>
<path fill="#000000" opacity="1.000000" stroke="none" 
	d="
M551.288086,603.476196 
	C542.045471,607.510925 532.892822,609.219299 523.201965,607.236511 
	C511.752716,604.893738 504.478058,594.832031 506.340424,583.370544 
	C509.570465,563.492065 514.965576,544.066833 518.847229,524.323364 
	C519.356628,521.732300 520.886047,520.762573 523.425415,520.773438 
	C533.584290,520.817078 543.743835,520.842590 553.902222,520.760498 
	C557.941772,520.727844 558.527466,522.485657 557.742065,526.127197 
	C553.991028,543.519409 550.476807,560.962646 546.855286,578.382874 
	C546.193909,581.564636 545.463501,584.898560 548.854309,586.895569 
	C552.257507,588.899841 555.574036,587.769470 558.659302,585.671326 
	C562.077820,583.346558 563.610535,579.859924 564.450806,576.068359 
	C567.940308,560.322876 571.389160,544.567627 574.717224,528.787354 
	C576.366638,520.966736 576.451599,520.759155 584.401184,520.766602 
	C593.227905,520.774780 602.057312,520.908691 610.880249,520.728760 
	C615.066772,520.643372 616.142944,522.306824 615.299561,526.183105 
	C610.209290,549.579468 605.202026,572.993958 600.163635,596.401611 
	C600.093689,596.726379 599.969971,597.039124 599.888367,597.361816 
	C597.361755,607.353882 597.363831,607.315918 586.795837,606.848572 
	C581.642700,606.620667 576.475769,606.354065 571.326721,606.504578 
	C567.791565,606.607910 565.651123,605.871765 565.241943,601.877625 
	C565.035645,599.863525 564.803467,597.521545 562.567322,595.876099 
	C558.954773,598.330688 555.291443,600.819824 551.288086,603.476196 
z"/>
<path fill="#000000" opacity="1.000000" stroke="none" 
	d="
M676.750244,352.603912 
	C669.833496,355.672394 667.387451,360.808411 667.072266,367.867096 
	C666.433960,382.158051 665.193054,396.421570 664.270020,410.700897 
	C664.168823,412.266724 663.548767,413.961700 664.851807,415.736816 
	C668.683655,412.593140 671.015198,408.339294 673.988037,404.652374 
	C678.065063,399.596130 681.894592,394.340668 685.957458,389.272552 
	C689.406128,384.970581 691.288879,385.200287 693.827332,390.212616 
	C697.289001,397.048065 700.606445,403.956390 704.008362,410.822296 
	C704.368530,411.549377 704.880249,412.201385 705.555664,413.252319 
	C711.116394,409.506378 715.444031,404.706726 719.807678,400.034607 
	C722.905457,396.717957 724.439026,397.514374 726.316162,401.101990 
	C730.662415,409.408386 730.518860,412.053223 724.565308,419.571259 
	C724.358398,419.832428 724.207275,420.158569 723.954712,420.359619 
	C714.256836,428.080139 714.840454,436.460571 720.845581,446.552155 
	C726.855164,456.651367 725.682373,459.497650 715.847717,469.110901 
	C707.429016,456.780823 699.092102,444.570618 690.336060,431.746460 
	C664.211060,456.845978 639.147217,481.954102 612.415955,505.573334 
	C612.557251,494.688446 608.729919,483.733124 618.291504,474.571472 
	C624.731689,468.400726 629.564026,460.579376 635.374817,453.715851 
	C640.113708,448.118439 639.294800,441.122162 640.419067,434.740814 
	C644.094360,413.878784 645.694824,392.815063 644.734436,371.598907 
	C644.371887,363.590271 643.801208,355.837646 635.201172,351.758484 
	C633.111145,350.767120 632.579041,348.437164 632.061890,346.294128 
	C631.264771,342.991058 632.558044,341.496429 635.906799,341.847504 
	C650.024902,343.327728 664.157715,343.111572 678.299500,342.297211 
	C678.573547,342.281403 678.866516,342.593811 679.452209,342.922089 
	C679.349304,346.165649 680.110840,349.688660 676.750244,352.603912 
z"/>
<path fill="#000000" opacity="1.000000" stroke="none" 
	d="
M551.856445,424.056427 
	C557.163757,399.611633 562.496033,375.600800 567.511475,351.524017 
	C568.305969,347.710205 569.929565,346.649139 573.508118,346.684326 
	C585.990295,346.807281 598.474548,346.702576 610.958008,346.713043 
	C616.407593,346.717590 617.123169,347.544189 615.964600,352.864899 
	C609.954285,380.465698 603.898804,408.056671 597.858337,435.650909 
	C595.016602,448.632965 592.049744,461.589722 589.416382,474.613861 
	C588.748596,477.916382 587.290039,479.115387 584.100037,479.096344 
	C571.284302,479.019836 558.467346,478.973724 545.652039,479.074921 
	C541.199951,479.110077 540.352234,477.358704 541.290283,473.197327 
	C544.943909,456.990082 548.306091,440.717133 551.856445,424.056427 
z"/>
<path fill="#000000" opacity="1.000000" stroke="none" 
	d="
M487.251587,520.974365 
	C495.422119,518.117615 503.222260,517.756348 511.031799,520.835876 
	C514.254639,522.106750 515.609863,523.959656 514.697815,527.758118 
	C512.020264,538.909485 509.642761,550.136292 507.353821,561.375427 
	C506.757202,564.304932 505.238495,565.235352 502.536377,565.182983 
	C498.376129,565.102295 494.207062,564.949890 490.054932,565.130798 
	C486.271484,565.295776 484.554932,563.975464 484.669617,559.986877 
	C484.759705,556.853882 484.219696,553.698730 483.901245,550.559326 
	C483.589233,547.483093 482.244110,545.045898 479.019287,544.387695 
	C475.710602,543.712463 473.196564,545.337280 471.299347,547.899353 
	C468.944916,551.078796 468.398193,554.988647 467.554779,558.671021 
	C464.327881,572.760254 461.273590,586.891479 458.376160,601.052246 
	C457.631042,604.693726 456.314880,606.420105 452.241150,606.478088 
	C442.428894,606.617676 432.626984,606.633423 422.814636,606.465393 
	C418.545929,606.392273 417.161835,605.036255 418.099487,600.772217 
	C423.668976,575.444824 429.172882,550.102356 434.515961,524.726501 
	C435.191589,521.517639 436.762451,520.689575 439.642883,520.723267 
	C446.799805,520.807068 453.968231,521.003418 461.112213,520.694946 
	C465.586243,520.501770 467.715179,521.993896 468.610870,526.496338 
	C469.854309,532.747009 471.012512,532.981140 475.693848,528.493286 
	C478.994476,525.329102 482.792664,523.024963 487.251587,520.974365 
z"/>
<path fill="#000000" opacity="1.000000" stroke="none" 
	d="
M333.252563,564.189209 
	C328.489594,563.297363 325.420471,560.420166 322.716492,557.247925 
	C320.073151,554.146851 317.942932,554.083984 314.881439,556.845825 
	C296.577728,573.357849 278.132599,589.712952 259.749817,606.137390 
	C255.404358,610.019958 251.105331,613.954773 246.806656,617.889221 
	C244.998047,619.544617 242.975327,620.502869 240.462433,620.203796 
	C236.274170,619.705322 234.682144,616.567871 237.136383,612.527344 
	C240.156876,607.554688 243.686310,602.889343 247.028900,598.114380 
	C263.650208,574.370422 280.281921,550.633850 296.912933,526.896667 
	C297.486420,526.078186 298.085510,525.277405 298.682129,524.475342 
	C306.744232,513.636963 321.212524,514.952881 327.641876,527.158691 
	C329.268860,530.247437 330.771027,533.418213 332.085144,536.651062 
	C333.466034,540.048157 335.081482,541.342712 338.834656,539.296814 
	C344.968445,535.953247 351.367920,533.093018 357.686035,530.093628 
	C360.330627,528.838196 363.139740,527.787292 365.266083,530.891174 
	C367.225769,533.751892 366.080566,536.443787 363.972595,538.566833 
	C356.228638,546.366272 348.390564,554.073486 340.507690,561.732849 
	C338.668701,563.519653 336.314178,564.424744 333.252563,564.189209 
z"/>
<path fill="#000000" opacity="1.000000" stroke="none" 
	d="
M424.512512,260.432251 
	C460.257416,247.240158 496.727570,242.588821 534.312622,245.538483 
	C570.057922,248.343765 603.490723,258.629333 635.051636,275.390472 
	C640.334961,278.196320 640.725281,283.228699 635.947449,286.816193 
	C633.909790,288.346222 632.490112,286.529449 631.011658,285.751678 
	C615.800781,277.749939 600.238647,270.608887 583.669983,265.832458 
	C565.068787,260.470123 546.173401,257.226379 526.793030,256.015869 
	C492.657715,253.883835 459.775574,259.231262 427.875702,271.051086 
	C394.230713,283.517517 364.952454,302.785919 340.030426,328.631531 
	C338.642792,330.070587 337.192169,331.449890 335.827667,332.910034 
	C333.299347,335.615540 330.804260,335.625305 328.005219,333.207031 
	C325.043488,330.648254 325.380066,328.074860 327.611450,325.391418 
	C334.244690,317.414246 341.980408,310.534851 349.866852,303.883881 
	C372.090851,285.141479 396.733673,270.455475 424.512512,260.432251 
z"/>
<path fill="#000000" opacity="1.000000" stroke="none" 
	d="
M343.119965,753.296265 
	C343.923279,751.253784 344.582336,749.549377 345.241394,747.844971 
	C345.058289,747.653137 344.875153,747.461365 344.692047,747.269531 
	C341.960815,749.885559 339.273926,752.550171 336.482605,755.100403 
	C334.661102,756.764648 332.933136,758.681702 330.043884,756.496460 
	C327.406952,754.502075 325.758911,752.685852 327.338928,749.037048 
	C330.635529,741.424072 333.579865,733.658508 336.903229,725.371399 
	C332.703339,725.673035 330.380615,723.110352 327.877563,720.824097 
	C326.557007,719.617920 325.270691,717.912109 323.368561,720.153198 
	C321.654724,722.172363 322.998962,723.483459 324.356659,724.799805 
	C325.312073,725.726257 326.323181,726.594971 327.286926,727.513000 
	C329.270447,729.402710 328.274780,731.052979 326.894409,732.723206 
	C325.464264,734.453735 324.111694,734.060547 322.644867,732.778259 
	C321.267365,731.574158 319.820190,730.449219 318.394897,729.300293 
	C316.974304,728.155212 315.673645,728.243958 314.519836,729.708252 
	C313.506470,730.994324 312.954315,732.360413 314.279388,733.723755 
	C315.901093,735.392334 317.590729,736.998718 319.309052,738.568481 
	C321.202362,740.297974 320.981506,741.858582 319.343201,743.685120 
	C317.628601,745.596741 316.194153,745.652100 314.327057,743.879517 
	C310.949982,740.673462 307.398834,737.651550 303.974823,734.493713 
	C302.179077,732.837524 301.494904,731.119080 303.536011,728.958191 
	C309.362610,722.789612 315.128510,716.560852 320.793732,710.244019 
	C322.753693,708.058655 324.346069,707.791199 326.603821,709.839966 
	C332.001282,714.737610 337.496216,719.532349 343.067261,724.231812 
	C345.122009,725.965027 345.205933,727.680359 344.138214,729.920288 
	C342.208069,733.969543 340.419342,738.086182 339.303162,742.882446 
	C342.269226,740.002197 345.318420,737.201355 348.173340,734.214783 
	C350.219238,732.074524 351.982574,730.812195 354.969574,732.962891 
	C357.894867,735.069092 358.865601,737.157349 357.071930,740.489502 
	C355.353333,743.682190 353.955811,747.047607 351.887726,751.469055 
	C355.952484,749.373047 358.212128,746.844727 360.612823,744.524353 
	C365.125244,740.162842 365.939087,740.204956 370.672821,745.396301 
	C369.254486,748.460693 366.295319,750.138062 363.854095,752.265442 
	C358.712433,756.746155 353.455231,761.094604 348.324615,765.587585 
	C346.251709,767.402893 344.531311,766.971558 342.591461,765.415588 
	C340.654755,763.862244 339.014130,762.393372 340.406738,759.590820 
	C341.367554,757.657227 342.126526,755.623352 343.119965,753.296265 
z"/>
<path fill="#000000" opacity="1.000000" stroke="none" 
	d="
M446.815063,804.830017 
	C445.966614,796.348877 445.155518,788.312744 444.280731,779.645325 
	C441.161713,781.530579 441.026550,784.010071 440.419037,786.109436 
	C438.847260,791.540649 437.462646,797.026123 436.014374,802.492859 
	C435.265472,805.319824 434.281494,807.414246 430.524384,806.349243 
	C427.105988,805.380249 426.496277,803.746704 427.481873,800.491028 
	C429.795685,792.847656 431.832672,785.119019 433.896393,777.402039 
	C434.807068,773.996704 436.821564,773.211670 439.903961,774.495544 
	C440.821869,774.877869 441.722839,775.711548 442.613434,775.686646 
	C454.559631,775.354065 453.661804,784.069641 454.156250,791.861755 
	C454.246918,793.290405 453.841980,794.913513 456.061462,796.644653 
	C458.254089,792.792297 460.664948,789.159546 462.457062,785.243591 
	C464.364319,781.076050 466.907654,780.469727 471.230011,781.457642 
	C477.020844,782.781189 483.056519,783.028259 488.984314,783.759827 
	C491.443665,784.063293 494.305603,783.902710 493.791229,787.803894 
	C493.320404,791.374695 490.961304,791.376038 488.257874,790.842529 
	C487.279541,790.649536 486.290985,790.488342 485.299500,790.386169 
	C483.335052,790.183838 482.056427,790.909180 481.900818,793.047485 
	C481.750641,795.111755 483.076782,795.560974 484.738312,795.668457 
	C486.067841,795.754333 487.402527,795.810486 488.722961,795.975586 
	C490.908447,796.248840 491.970520,797.369934 491.580383,799.719543 
	C491.255066,801.678650 490.791199,803.364380 488.312714,803.253540 
	C486.815399,803.186584 485.318634,803.102173 483.822906,803.005615 
	C482.329224,802.909241 480.687927,802.518005 480.313141,804.691040 
	C479.951874,806.785828 480.574341,808.356445 482.849213,808.795837 
	C484.804413,809.173523 486.774078,809.528076 488.754181,809.711609 
	C491.018677,809.921509 492.146210,811.016907 491.844971,813.282532 
	C491.559601,815.429077 490.880219,817.075012 488.041199,816.688110 
	C483.428955,816.059509 478.782990,815.657410 474.142426,815.264038 
	C470.404938,814.947205 470.628937,812.307800 470.883606,809.780579 
	C471.483643,803.825317 472.242615,797.886353 472.878387,791.934448 
	C473.048279,790.344055 473.387268,788.674500 472.177734,786.814148 
	C469.086914,789.360718 467.929901,792.885925 466.063171,795.873169 
	C463.681488,799.684570 461.526001,803.638367 459.309937,807.551758 
	C457.934479,809.980652 457.112793,812.733154 453.157135,812.037354 
	C449.106323,811.324768 446.745392,809.596008 446.815063,804.830017 
z"/>
<path fill="#000000" opacity="1.000000" stroke="none" 
	d="
M656.661987,315.350464 
	C654.938477,313.750946 653.446167,312.420776 652.024353,311.019012 
	C640.291931,299.451721 644.448547,279.799988 659.891479,273.827301 
	C660.638062,273.538513 661.447815,273.120148 662.621826,274.239594 
	C658.363464,283.449219 659.724304,292.104553 666.985046,300.329895 
	C668.585510,297.583710 666.833984,294.376282 670.226929,291.837097 
	C675.910950,301.005096 681.474487,309.981689 679.927734,321.218445 
	C678.631897,330.631714 671.756714,335.660645 663.607056,339.180389 
	C663.092102,339.402771 662.375244,339.157684 660.918884,339.093079 
	C665.060852,330.095825 665.031982,322.002625 656.661987,315.350464 
z"/>
<path fill="#000000" opacity="1.000000" stroke="none" 
	d="
M578.367798,800.775513 
	C578.770996,802.818359 579.040100,804.465332 579.476074,806.066772 
	C580.223145,808.810608 580.321594,810.812561 576.587341,811.441895 
	C573.265747,812.001770 571.572815,811.214233 571.013062,807.835327 
	C570.278809,803.403137 569.254944,799.018311 568.544800,794.582886 
	C567.822266,790.069519 566.232483,786.922485 560.767273,788.139343 
	C559.741882,788.367615 558.562866,787.905457 557.135498,787.720581 
	C556.896240,795.275879 558.679382,802.391174 559.822815,809.551392 
	C560.312683,812.618958 559.771423,814.343506 556.594604,815.006958 
	C553.524597,815.647949 551.923523,814.716370 551.468689,811.435059 
	C550.326843,803.197571 549.055847,794.975403 547.668396,786.775574 
	C547.090515,783.360413 548.889221,781.690552 551.674133,782.089417 
	C557.607788,782.939087 562.643494,779.765991 568.225342,779.072144 
	C573.798584,778.379333 579.262634,776.650757 584.706299,775.131714 
	C587.911133,774.237427 590.530151,774.210754 592.542603,777.363770 
	C593.421021,778.740051 594.658691,780.156616 596.628601,779.561523 
	C598.354797,779.039978 598.604553,777.398621 598.688416,775.897278 
	C598.994385,770.421692 602.429382,769.124451 607.351624,769.211243 
	C608.130371,773.470642 606.626099,777.312683 605.668030,781.025513 
	C604.108643,787.068970 603.806274,792.811829 606.418884,798.563599 
	C607.830261,801.670715 606.965454,803.480530 603.565308,804.492676 
	C600.070740,805.533081 599.034912,803.791687 598.535950,800.937988 
	C597.007812,792.198181 590.701721,787.028442 584.765625,781.864868 
	C584.148804,781.941650 583.948364,781.908569 583.823120,781.990540 
	C575.150635,787.662231 575.151123,787.663025 578.367798,800.775513 
z"/>
<path fill="#000000" opacity="1.000000" stroke="none" 
	d="
M521.239075,217.427551 
	C523.791809,213.164337 523.095154,208.782379 522.381714,204.620529 
	C521.827148,201.386276 518.685852,201.330185 515.914673,201.315659 
	C513.459473,201.302795 510.673950,201.751404 510.654205,197.832275 
	C510.634094,193.845032 513.662476,194.470245 515.957703,194.322327 
	C518.266846,194.173508 520.623596,194.379303 522.930786,194.663086 
	C527.792603,195.261139 530.811890,198.291626 531.208984,203.174118 
	C531.464722,206.318512 531.593445,209.533508 531.226746,212.651886 
	C530.831970,216.007828 532.469604,217.857498 534.841553,219.651474 
	C536.672363,221.036163 538.624939,221.131241 540.467163,220.283234 
	C542.383667,219.401016 541.764038,217.359146 541.567261,215.802902 
	C540.921265,210.693176 540.094482,205.606339 539.340820,200.510162 
	C539.052612,198.561401 538.235718,196.215073 541.275757,195.854980 
	C543.882751,195.546204 546.838562,195.142792 547.374451,199.071625 
	C548.093018,204.339203 548.832214,209.604202 549.613647,214.862701 
	C549.706177,215.485062 550.120361,216.059601 550.551880,217.030960 
	C553.509583,215.077484 553.955139,212.094772 554.581848,209.294937 
	C555.161987,206.703751 555.481262,204.054337 555.921082,201.431519 
	C556.438965,198.342682 558.340515,197.380295 561.300476,197.752197 
	C564.353027,198.135727 564.545654,200.235779 564.243347,202.511932 
	C563.564575,207.623215 562.758545,212.737167 560.724487,217.515839 
	C557.382629,225.366959 544.594727,232.130447 537.231140,227.961365 
	C530.321655,224.049316 523.778320,226.421677 517.189026,225.288879 
	C514.346252,224.800125 509.730652,227.207520 509.756653,221.510498 
	C509.780853,216.209198 514.149292,218.385025 516.876709,217.880524 
	C518.175049,217.640350 519.526428,217.687378 521.239075,217.427551 
z"/>
<path fill="#000000" opacity="1.000000" stroke="none" 
	d="
M318.454773,593.507507 
	C312.942963,597.267517 307.764832,600.876343 302.510101,604.369873 
	C301.003632,605.371460 299.347595,606.272583 297.631348,606.803406 
	C295.355499,607.507263 292.864441,607.680481 291.336243,605.330933 
	C289.947632,603.196106 290.914185,601.139832 292.348083,599.388611 
	C295.925995,595.018982 299.481354,590.624573 303.228485,586.402283 
	C305.251465,584.122803 306.191956,582.075806 303.858032,579.494080 
	C301.121674,576.467285 301.961029,574.044312 304.945923,571.590210 
	C308.790833,568.429077 312.383209,564.956604 316.027161,561.556946 
	C317.782654,559.919128 319.410553,559.672852 321.214996,561.442749 
	C324.657501,564.819336 328.156555,568.158569 330.808533,572.216431 
	C334.102753,577.256897 333.711060,581.291077 329.078369,585.504272 
	C325.900269,588.394592 322.216858,590.729370 318.454773,593.507507 
z"/>
<path fill="#000000" opacity="1.000000" stroke="none" 
	d="
M809.504395,562.583984 
	C805.813721,563.247314 802.543213,563.818420 798.252502,564.567749 
	C803.440186,565.724243 807.675964,566.857117 811.981506,567.566284 
	C815.197632,568.096008 815.574036,569.943665 815.154907,572.565613 
	C814.667358,575.615417 812.656006,575.625122 810.306030,575.093689 
	C802.530212,573.335205 794.749817,571.596863 786.972412,569.845764 
	C784.574829,569.305908 782.253845,568.566895 782.844177,565.386780 
	C783.389832,562.447266 782.842529,558.774292 787.284912,558.113403 
	C791.678467,557.459778 796.174988,557.312439 801.000427,555.659607 
	C797.429260,552.593689 793.506409,551.185425 789.784790,549.675659 
	C785.184265,547.809265 786.723022,544.488098 787.063660,541.330139 
	C787.417358,538.050598 789.592834,537.454651 792.413208,537.705566 
	C800.522644,538.426880 808.634277,539.127136 816.750366,539.767517 
	C819.337769,539.971619 820.270935,541.250305 819.836365,543.730408 
	C819.421143,546.100098 819.089417,548.492249 815.743042,548.167847 
	C811.806641,547.786316 807.903992,546.755005 802.697815,547.638000 
	C806.361755,549.625854 809.212524,551.099792 811.989441,552.701721 
	C814.286011,554.026489 817.452515,554.427673 816.765442,558.571533 
	C816.020081,563.066956 812.692566,562.067566 809.504395,562.583984 
z"/>
<path fill="#000000" opacity="1.000000" stroke="none" 
	d="
M803.331360,442.878723 
	C808.179382,466.376465 809.950317,489.705475 809.309753,513.242859 
	C809.236328,515.938538 809.073914,518.318848 805.443970,518.300537 
	C801.922119,518.282776 800.745178,516.293762 800.873291,513.162292 
	C802.024109,485.041779 798.753784,457.404114 791.801941,430.173096 
	C791.055786,427.250397 792.197937,425.881592 794.973022,425.149658 
	C797.651123,424.443298 799.200439,425.333008 799.830566,427.889374 
	C801.024658,432.733734 802.132629,437.599365 803.331360,442.878723 
z"/>
<path fill="#000000" opacity="1.000000" stroke="none" 
	d="
M336.338318,254.791794 
	C337.272400,256.193024 337.922150,257.360443 338.693329,258.441193 
	C342.630798,263.959290 344.014587,269.533691 338.494507,275.150909 
	C341.772766,277.157257 343.481659,275.236694 345.014374,273.721802 
	C347.409119,271.354950 347.457123,268.271118 346.446411,265.320099 
	C345.032532,261.191864 342.292755,257.762482 339.965607,254.122452 
	C338.763031,252.241486 337.681854,250.387543 340.005096,248.416748 
	C342.547974,246.259583 344.708496,245.357849 346.792480,249.015717 
	C348.848175,252.623917 351.351013,255.980545 353.354248,259.614807 
	C357.665405,267.435974 356.736542,274.084961 349.913544,279.680481 
	C337.322906,290.006012 339.724091,288.200073 330.425537,279.369843 
	C326.700958,275.832855 323.502136,271.740662 320.082184,267.885101 
	C318.302460,265.878662 318.443817,264.115723 320.627808,262.394623 
	C322.720001,260.745880 324.652832,260.080750 326.733459,262.314209 
	C328.738159,264.466187 330.010162,267.333679 333.295288,268.921448 
	C333.623718,265.413666 331.422058,263.328888 329.940918,260.955658 
	C328.935120,259.344025 328.024597,257.538879 329.786438,255.999557 
	C331.544739,254.463333 333.301331,251.956360 336.338318,254.791794 
z"/>
<path fill="#000000" opacity="1.000000" stroke="none" 
	d="
M413.516357,800.262207 
	C410.395569,794.440247 411.989471,787.916748 409.459808,781.663025 
	C406.248840,785.088867 405.818970,789.162781 404.404053,792.730347 
	C403.402893,795.254761 402.400269,796.782227 399.304443,795.597168 
	C396.269745,794.435486 395.715240,792.746155 396.885406,789.817261 
	C399.725922,782.707031 402.283752,775.483704 405.129639,768.375732 
	C405.892883,766.469421 405.666260,762.995667 409.197052,763.886902 
	C412.348267,764.682251 415.769226,765.596375 416.167511,769.915649 
	C416.457245,773.057495 416.949554,776.186401 417.499176,779.294922 
	C417.656647,780.185486 418.328400,780.985107 418.974060,782.231201 
	C421.493561,779.550720 422.076599,776.415466 423.187805,773.604797 
	C424.228760,770.971619 425.680389,769.823425 428.513916,770.861267 
	C431.421387,771.926208 431.670349,773.952087 430.716919,776.476257 
	C427.776917,784.259094 424.908264,792.070190 421.854553,799.808289 
	C419.750427,805.140076 416.629028,801.759521 413.516357,800.262207 
z"/>
<path fill="#000000" opacity="1.000000" stroke="none" 
	d="
M286.674866,300.698853 
	C295.117706,303.746796 300.356140,310.561584 307.024841,315.425354 
	C308.880707,316.778900 307.561279,318.447113 306.494507,319.746399 
	C302.484894,324.629883 298.418121,329.466400 294.403839,334.346100 
	C292.832672,336.255981 291.262512,336.472931 289.319458,334.810883 
	C282.998291,329.403778 276.609680,324.075562 270.274597,318.684570 
	C268.917542,317.529724 267.905823,315.954681 269.134521,314.320374 
	C272.627838,309.673828 276.136688,305.000732 280.953979,301.575317 
	C282.550171,300.440308 284.424561,300.580322 286.674866,300.698853 
M282.810608,310.406311 
	C281.472198,311.551605 279.688232,312.368622 279.708160,315.041382 
	C282.280914,317.158478 284.993683,319.554474 287.883636,321.713318 
	C289.921570,323.235687 292.025421,322.348083 293.849731,321.074219 
	C294.959839,320.298981 295.664948,319.142181 295.226624,317.644104 
	C294.467804,315.050446 286.552246,309.996490 282.810608,310.406311 
z"/>
<path fill="#000000" opacity="1.000000" stroke="none" 
	d="
M630.696655,314.171112 
	C630.834595,311.451050 630.409180,309.043549 632.312988,306.971680 
	C633.090027,307.504547 633.842468,308.020569 634.649841,308.574188 
	C636.742065,304.564178 636.052124,299.251099 640.467957,296.537476 
	C640.881958,296.839172 641.134888,296.950684 641.124512,297.026245 
	C639.613098,308.104004 645.945618,314.628723 654.296692,320.131012 
	C656.045532,321.283325 657.515442,323.063354 658.693787,324.833740 
	C660.988831,328.281891 661.366272,332.099060 658.957458,335.604858 
	C656.632019,338.989319 653.080078,339.705017 649.170959,338.942413 
	C637.499817,336.665558 630.938721,328.029694 630.696655,314.171112 
z"/>
<path fill="#000000" opacity="1.000000" stroke="none" 
	d="
M282.403564,702.723755 
	C274.969086,702.614258 266.579437,696.272156 264.221863,689.585144 
	C263.493713,687.519836 264.516876,686.365295 265.846802,685.352112 
	C272.849152,680.018005 279.890778,674.735107 286.946411,669.471497 
	C288.331909,668.437988 289.875153,667.626587 291.308777,669.424561 
	C294.408844,673.312378 297.844238,677.006775 299.306427,681.927307 
	C300.753723,686.797729 298.719757,691.141846 293.828888,692.519165 
	C290.984070,693.320190 289.274261,694.472351 288.412567,697.373108 
	C287.616669,700.052368 285.437683,701.698303 282.403564,702.723755 
M276.332947,687.963745 
	C274.401093,689.290955 273.580872,690.819763 275.506348,692.794678 
	C276.827637,694.149963 278.272369,695.340393 280.225159,693.997253 
	C282.003296,692.774231 282.083405,690.971741 281.373322,689.148621 
	C280.520630,686.959412 279.163910,685.843262 276.332947,687.963745 
M286.086273,682.957153 
	C287.509918,684.610718 289.114136,685.769775 291.001068,683.733154 
	C292.071838,682.577393 291.649719,680.941345 290.545380,680.229980 
	C288.116119,678.664917 286.671112,680.082275 286.086273,682.957153 
z"/>
<path fill="#000000" opacity="1.000000" stroke="none" 
	d="
M246.607635,639.228027 
	C244.627289,640.096008 242.875931,640.721558 241.342850,641.691956 
	C238.647049,643.398193 236.857132,643.056824 235.381302,640.055359 
	C234.029755,637.306641 234.149460,635.533081 237.205322,634.088013 
	C244.574829,630.602966 251.844101,626.905151 259.138245,623.261963 
	C261.402740,622.131042 263.337860,621.342773 264.786133,624.541199 
	C266.110535,627.466064 266.168945,629.601257 262.781494,630.899353 
	C261.698761,631.314270 260.707794,631.962341 259.643188,632.431824 
	C256.415771,633.854980 256.268768,635.890442 257.896484,638.814819 
	C259.389771,641.497803 260.807831,643.311462 264.047943,641.301697 
	C265.176147,640.601868 266.460663,640.148682 267.568237,639.421875 
	C270.186523,637.703613 271.784973,638.580383 273.107117,641.169312 
	C274.377808,643.657471 274.354126,645.493774 271.582001,646.900635 
	C264.165222,650.664551 256.775482,654.483582 249.422409,658.370422 
	C246.366104,659.985962 244.899200,658.513489 243.559830,655.961548 
	C242.154221,653.283447 243.376801,651.960083 245.653885,650.908081 
	C246.860397,650.350647 248.077530,649.775879 249.180450,649.044067 
	C250.765137,647.992615 253.286255,647.212463 252.189575,644.644043 
	C251.177109,642.272949 250.946426,638.786743 246.607635,639.228027 
z"/>
<path fill="#000000" opacity="1.000000" stroke="none" 
	d="
M641.969604,757.707520 
	C648.815857,761.284302 651.621521,767.124329 652.468811,774.020935 
	C653.256104,780.429749 650.079468,785.780640 644.272644,788.597656 
	C638.065247,791.608948 632.006409,790.753113 627.247986,786.193054 
	C617.657166,777.002075 619.027954,762.854797 630.015259,757.825928 
	C633.827515,756.081055 637.711487,755.977234 641.969604,757.707520 
M629.850708,767.551575 
	C628.225769,772.196228 630.142029,776.083191 632.756287,779.626831 
	C634.535889,782.039124 637.171692,783.317932 640.233582,782.178711 
	C643.352356,781.018311 644.181274,778.395386 643.965942,775.291016 
	C643.764160,772.383606 642.804810,769.735962 641.084351,767.425842 
	C638.019897,763.310974 634.072632,763.150024 629.850708,767.551575 
z"/>
<path fill="#000000" opacity="1.000000" stroke="none" 
	d="
M672.588318,275.103027 
	C668.994629,267.410095 673.098328,261.963745 677.162964,256.604492 
	C678.762268,254.495972 680.593262,252.649994 681.454041,250.006226 
	C682.528076,246.707153 684.768372,246.120270 687.642151,248.076355 
	C690.253967,249.854111 692.901428,251.582413 695.466125,253.425827 
	C700.059204,256.727264 703.548645,260.838531 701.810852,266.878906 
	C699.686035,274.264465 695.324646,280.176758 687.535950,282.209320 
	C681.095642,283.890076 676.272583,280.801910 672.588318,275.103027 
M687.171387,258.714569 
	C683.713135,261.212738 681.416626,264.555420 679.890076,268.507996 
	C679.117004,270.509796 679.719849,272.056305 681.135071,273.427765 
	C682.695129,274.939606 684.436096,274.715027 686.171021,273.798279 
	C688.757690,272.431549 690.427246,270.152588 691.872742,267.726624 
	C694.853271,262.724548 693.725525,260.212463 687.171387,258.714569 
z"/>
<path fill="#000000" opacity="1.000000" stroke="none" 
	d="
M710.805847,711.200500 
	C705.209351,705.862976 705.122070,705.190247 710.142456,699.690247 
	C711.922424,697.740295 713.945496,695.927612 716.123352,694.441589 
	C722.208496,690.289490 728.696228,692.401733 730.682495,699.457764 
	C731.512939,702.407898 732.907776,703.828003 735.589783,704.899597 
	C738.949707,706.242249 742.159851,708.014771 744.954651,710.299011 
	C741.656189,717.091797 740.923462,717.294617 734.843323,714.107422 
	C732.265381,712.756042 729.600769,710.005737 726.549072,713.483154 
	C727.191345,716.548889 729.780273,717.822571 731.573730,719.668274 
	C733.757568,721.915649 733.889221,723.689087 731.597961,725.991211 
	C729.334351,728.265686 727.727966,727.669006 725.754639,725.698669 
	C720.927368,720.878906 715.978394,716.181152 710.805847,711.200500 
M722.553589,707.407166 
	C724.285889,705.298523 724.520386,703.158020 722.332336,701.282043 
	C720.732422,699.910278 719.215637,700.780334 717.901001,701.969482 
	C717.129395,702.667419 716.469299,703.594971 717.123230,704.588257 
	C718.270935,706.331482 719.239807,708.528076 722.553589,707.407166 
z"/>
<path fill="#000000" opacity="1.000000" stroke="none" 
	d="
M519.476074,798.955078 
	C517.342957,801.547363 517.238647,803.796143 518.308838,806.645874 
	C519.561096,809.980286 520.636658,813.502563 520.570801,817.136841 
	C514.416443,819.082642 513.000366,818.363220 511.355438,812.631104 
	C511.172058,811.992126 510.948364,811.359131 510.832397,810.707458 
	C510.462433,808.628418 509.754303,806.374878 507.344269,806.610046 
	C504.597809,806.877991 505.335205,809.565979 505.144196,811.442871 
	C505.043457,812.432678 505.095947,813.437256 505.024567,814.431213 
	C504.854431,816.800598 503.664337,818.122070 501.183472,817.990784 
	C498.877594,817.868896 496.747864,817.421204 496.784424,814.443726 
	C496.890533,805.799377 497.009705,797.155029 497.194458,788.512146 
	C497.245972,786.102539 498.741730,784.918945 501.071533,784.864075 
	C504.061188,784.793640 507.079742,784.563171 510.039215,784.862549 
	C518.368469,785.705139 521.420532,790.186157 519.476074,798.955078 
M506.868195,791.726440 
	C504.661041,793.535645 504.689240,795.942505 506.086182,797.893799 
	C507.208191,799.461060 509.175018,798.703552 510.516205,797.552856 
	C512.992798,795.427979 511.743622,792.938538 506.868195,791.726440 
z"/>
<path fill="#000000" opacity="1.000000" stroke="none" 
	d="
M282.777588,712.287903 
	C281.576569,709.886353 283.307861,708.956177 284.449310,707.884521 
	C290.257660,702.430969 296.177490,697.094971 301.931000,691.584900 
	C304.367981,689.251038 306.371124,689.156006 308.623810,691.732666 
	C310.803925,694.226196 313.482178,696.342468 315.359497,699.030945 
	C319.917297,705.558167 317.087799,712.710632 309.345184,714.141785 
	C306.791809,714.613770 305.745361,715.790710 304.770325,717.913879 
	C303.122345,721.502380 301.374115,725.088440 298.629486,727.988464 
	C292.465546,725.010559 291.895905,723.285645 295.111542,717.747314 
	C297.891876,712.958679 297.891907,712.958679 296.437256,709.865784 
	C293.963684,709.808105 292.651184,711.785339 291.220703,713.228455 
	C288.072266,716.404907 285.420990,716.681824 282.777588,712.287903 
M302.248077,704.320496 
	C302.845398,706.308716 304.097626,707.460815 306.247223,707.081787 
	C307.812958,706.805664 308.907227,705.762512 309.381409,704.233459 
	C309.831390,702.782532 309.142334,701.464844 308.071289,700.746460 
	C304.594208,698.414124 303.601044,701.468689 302.248077,704.320496 
z"/>
<path fill="#000000" opacity="1.000000" stroke="none" 
	d="
M776.175110,373.142181 
	C771.915161,371.758209 769.607422,373.130127 768.072754,376.894012 
	C767.041992,379.421875 766.103027,382.224304 763.283264,383.937805 
	C760.002747,380.254791 758.488586,376.624176 761.652710,371.975403 
	C763.488525,369.278198 765.113098,366.339111 765.989197,362.749207 
	C762.569763,361.813141 760.195374,364.050171 757.709656,365.248657 
	C754.272827,366.905823 752.567993,365.701813 751.061157,362.645813 
	C749.285522,359.044556 751.913025,358.368591 754.190491,357.352692 
	C758.587463,355.391327 762.914612,353.161652 767.982605,353.753174 
	C770.380737,354.033051 771.571716,352.543213 772.580444,350.669800 
	C773.657227,348.670013 774.372925,346.354523 776.597839,345.240051 
	C781.350891,348.823639 781.818420,350.868958 779.173889,355.628082 
	C777.884216,357.948883 776.658936,360.306549 775.459106,362.675201 
	C775.254456,363.079315 775.325989,363.623291 775.233032,364.417725 
	C778.204407,365.043182 780.355225,363.168182 782.655334,362.147827 
	C785.945923,360.688110 787.468445,362.143005 788.825500,364.972168 
	C790.363647,368.178864 788.874207,369.537933 786.159973,370.584625 
	C783.053040,371.782806 779.935242,372.895691 776.175110,373.142181 
z"/>
<path fill="#000000" opacity="1.000000" stroke="none" 
	d="
M636.266174,238.506104 
	C638.358215,234.280609 640.351318,230.439590 642.188782,226.525467 
	C643.469971,223.796051 645.166992,223.410416 647.797607,224.744568 
	C650.266479,225.996674 651.458252,227.335464 650.052490,230.186768 
	C647.701477,234.955307 645.483032,239.792938 643.349976,244.663345 
	C642.455566,246.705505 641.943054,249.027054 644.500122,250.331985 
	C646.915649,251.564697 649.171936,250.773544 650.652222,248.642960 
	C652.353943,246.193588 653.840088,243.576385 655.220398,240.928085 
	C656.175293,239.096039 655.971680,237.301346 653.794556,236.363098 
	C651.893799,235.543976 650.464661,234.550888 651.808472,232.266235 
	C653.070496,230.120590 654.581238,228.705170 657.491394,229.615829 
	C663.071045,231.361862 665.854553,236.321228 663.969299,242.776199 
	C662.515747,247.753006 659.976196,252.317032 655.910400,255.755051 
	C649.918823,260.821503 639.378052,258.961487 635.366638,252.264938 
	C632.571289,247.598511 634.720886,243.264267 636.266174,238.506104 
z"/>
<path fill="#000000" opacity="1.000000" stroke="none" 
	d="
M759.006653,635.091309 
	C758.900574,627.383484 761.234863,624.995544 768.118713,625.757996 
	C775.560669,626.582214 782.981140,627.616882 790.392578,628.687256 
	C792.246521,628.954956 795.595886,627.743347 795.146118,631.257507 
	C794.761902,634.259216 793.678650,637.793396 789.284607,637.200195 
	C785.656799,636.710571 783.169312,637.673096 781.906189,641.377991 
	C781.287415,643.192932 781.467712,644.430420 782.789917,645.858337 
	C787.133972,650.549622 787.078796,650.789612 782.396606,656.274658 
	C773.840149,650.251343 766.991394,642.276794 759.006653,635.091309 
z"/>
<path fill="#000000" opacity="1.000000" stroke="none" 
	d="
M467.261292,229.233490 
	C463.383514,230.063492 461.641449,228.769043 461.167572,225.130402 
	C460.610046,220.849472 459.573792,216.632553 458.808563,212.376450 
	C458.198395,208.982758 456.657471,206.564529 452.803986,207.471878 
	C448.952606,208.378738 450.672729,211.286591 451.078949,213.582825 
	C451.773529,217.508957 452.873260,221.392014 453.218201,225.344193 
	C453.660095,230.407181 451.182159,233.229507 446.272797,234.026138 
	C444.643524,234.290527 442.700775,234.691055 441.929871,232.695801 
	C441.255219,230.949600 440.141998,228.859238 442.722534,227.468292 
	C444.927856,226.279617 445.074768,224.199768 444.411896,222.254440 
	C442.889404,217.786484 444.047913,212.448135 439.035919,209.014008 
	C436.934601,207.574234 436.895477,203.904480 440.757172,202.943741 
	C445.594452,201.740295 450.468018,200.522400 455.400330,199.904724 
	C460.743378,199.235611 464.463196,201.714645 465.978638,206.999939 
	C467.670380,212.900253 468.775360,218.971512 470.057983,224.984924 
	C470.486237,226.992813 469.972321,228.647232 467.261292,229.233490 
z"/>
<path fill="#000000" opacity="1.000000" stroke="none" 
	d="
M289.864746,520.724731 
	C293.370148,521.327576 293.546082,523.349548 292.322632,525.562927 
	C288.229279,532.968445 284.492798,540.561584 274.192902,541.172607 
	C267.607147,541.563354 261.110870,543.300964 254.539917,544.174683 
	C251.480972,544.581482 247.862869,545.175049 246.879669,540.809021 
	C245.962128,536.734436 248.904221,535.174377 251.984879,534.035034 
	C264.417450,529.437073 276.416748,523.616211 289.864746,520.724731 
z"/>
<path fill="#000000" opacity="1.000000" stroke="none" 
	d="
M750.681458,692.672119 
	C753.975769,689.434509 752.885498,686.684387 750.179382,684.338745 
	C746.162231,680.856689 742.014282,677.521667 737.848999,674.215942 
	C735.459717,672.319702 734.239075,670.586243 736.653809,667.651733 
	C738.846313,664.987366 740.624390,665.428711 742.918396,667.312012 
	C747.156433,670.791199 751.651978,673.967285 755.777588,677.570312 
	C762.061768,683.058411 762.523438,690.247498 757.306824,696.561035 
	C752.468689,702.416626 744.954102,703.288818 738.604248,698.538147 
	C734.213440,695.253052 730.038757,691.680481 725.697693,688.326721 
	C723.230225,686.420471 723.521301,684.740662 725.418579,682.534241 
	C727.218994,680.440430 728.742126,679.454224 731.193604,681.551086 
	C735.109314,684.900269 739.119751,688.140808 743.141846,691.362732 
	C745.266113,693.064331 747.515747,694.552551 750.681458,692.672119 
z"/>
<path fill="#000000" opacity="1.000000" stroke="none" 
	d="
M332.746887,491.723267 
	C341.851166,493.635223 345.041595,497.995911 344.395477,507.073090 
	C343.961853,513.164429 339.198914,517.863159 333.023132,518.292236 
	C324.320770,518.896851 318.334656,513.739746 317.985260,505.336884 
	C317.651154,497.301697 323.378204,491.854401 332.746887,491.723267 
z"/>
<path fill="#000000" opacity="1.000000" stroke="none" 
	d="
M380.807098,787.537720 
	C370.730255,783.662964 368.019012,777.774597 371.948486,768.210999 
	C373.965881,763.301025 376.570618,758.635010 378.810577,753.812622 
	C380.057068,751.129089 381.694122,750.570618 384.364746,751.959229 
	C386.930420,753.293335 387.675385,754.793152 386.301392,757.520630 
	C383.764252,762.556946 381.414459,767.690369 379.093140,772.831482 
	C377.976379,775.304810 377.778442,777.865234 380.665955,779.281006 
	C383.613342,780.726135 385.972443,779.310425 387.364624,776.746338 
	C389.979706,771.929993 392.375336,766.989685 394.722809,762.034912 
	C395.896698,759.557251 397.198578,758.300415 400.105682,759.708557 
	C402.886902,761.055908 403.845612,762.633301 402.273804,765.572449 
	C399.376404,770.990234 396.915649,776.656616 393.786407,781.930786 
	C391.052490,786.538696 386.925659,789.131348 380.807098,787.537720 
z"/>
<path fill="#000000" opacity="1.000000" stroke="none" 
	d="
M719.370789,737.384888 
	C709.256714,746.841492 709.262695,746.836487 700.497986,736.418701 
	C697.065674,732.339050 693.657410,728.236816 690.127380,724.242859 
	C688.036499,721.877197 688.058655,719.984131 690.604370,717.958557 
	C693.731873,715.469971 696.749146,712.834473 699.710693,710.148438 
	C701.774170,708.276978 703.410522,707.756836 705.501465,710.296448 
	C707.660828,712.919128 706.440918,714.440308 704.411072,716.061523 
	C703.111023,717.099792 701.839844,718.178650 700.608276,719.297119 
	C699.269287,720.513123 699.182312,721.837708 700.426697,723.215515 
	C701.649963,724.570068 702.779358,724.020874 703.897461,723.081299 
	C704.917908,722.223694 705.954224,721.382568 706.939209,720.485474 
	C708.633423,718.942505 710.151062,717.511841 712.306885,720.091431 
	C714.201050,722.357849 714.081726,723.979004 711.917480,726.005432 
	C709.575195,728.198425 704.835876,730.348145 710.500244,734.107849 
	C713.112183,733.319214 714.895813,731.534180 716.662354,729.799805 
	C719.007568,727.497192 721.237427,727.174622 723.422180,729.876221 
	C725.705933,732.700195 723.197998,733.984375 721.509644,735.502319 
	C720.890198,736.059265 720.253235,736.596680 719.370789,737.384888 
z"/>
<path fill="#000000" opacity="1.000000" stroke="none" 
	d="
M256.906372,660.862305 
	C262.471161,657.458618 267.764130,654.302429 272.959320,650.992737 
	C276.028137,649.037720 278.343231,648.933533 280.237671,652.585693 
	C281.920593,655.830078 283.946808,658.902405 285.918579,661.988586 
	C287.175171,663.955444 287.425934,665.526978 285.195374,667.052368 
	C282.751587,668.723694 281.240265,667.868652 279.923737,665.648804 
	C279.331055,664.649414 278.617004,663.719788 277.929688,662.779297 
	C276.865967,661.323486 275.596771,660.242249 273.731293,661.383118 
	C271.789124,662.570984 272.362305,664.163330 273.280273,665.704407 
	C273.876282,666.704895 274.509460,667.684998 275.163513,668.648804 
	C276.579620,670.735474 275.493744,671.947327 273.784973,673.134216 
	C271.956879,674.403809 270.453674,674.487183 269.133453,672.499634 
	C268.396576,671.390259 267.588715,670.327332 266.869141,669.207336 
	C265.784393,667.519043 264.715851,666.315491 262.463013,667.745667 
	C260.113525,669.237305 260.467590,670.872375 261.697479,672.779358 
	C262.599945,674.178589 263.445679,675.615723 264.382599,676.991028 
	C265.795471,679.065063 265.428528,680.604004 263.302704,681.987671 
	C261.215179,683.346375 259.758026,683.250061 258.390228,680.977173 
	C256.331146,677.555542 254.263596,674.104431 251.829254,670.951904 
	C248.766815,666.986023 249.661087,664.443420 254.016357,662.570984 
	C254.925873,662.179871 255.736984,661.559875 256.906372,660.862305 
z"/>
<path fill="#000000" opacity="1.000000" stroke="none" 
	d="
M790.237366,585.806946 
	C790.903442,583.735596 791.398254,581.974426 791.914001,580.219482 
	C792.592041,577.912476 794.087646,577.613281 796.185303,578.334534 
	C798.169861,579.016968 799.480957,579.912720 798.643250,582.303589 
	C798.259583,583.398621 798.102722,584.572144 797.733032,585.673157 
	C796.484070,589.393494 798.047913,590.945312 801.755005,591.104065 
	C803.741760,588.591736 804.050903,585.553650 804.942505,582.749939 
	C805.649353,580.527039 806.860229,579.372253 809.389282,580.117432 
	C811.752136,580.813660 812.633240,582.087341 811.917114,584.550110 
	C810.570679,589.180237 809.323364,593.840088 808.101929,598.505188 
	C807.476318,600.894348 806.107422,601.864929 803.697876,601.123657 
	C795.433289,598.581116 787.166077,596.046448 778.916138,593.456970 
	C776.739685,592.773804 775.607361,591.496033 776.401978,588.941101 
	C777.685364,584.815125 778.791382,580.631531 779.880310,576.448303 
	C780.582825,573.749207 782.225403,573.112549 784.755859,573.775208 
	C787.441345,574.478638 787.492310,576.292297 786.899902,578.439209 
	C786.457336,580.042908 785.774109,581.613037 785.574402,583.244202 
	C785.100586,587.114197 786.798523,587.939026 790.237366,585.806946 
z"/>
<path fill="#000000" opacity="1.000000" stroke="none" 
	d="
M756.489868,647.286926 
	C758.710876,650.254822 756.042603,651.299500 754.850647,652.897034 
	C753.517578,654.683411 751.040710,656.591248 753.366821,658.856445 
	C755.429199,660.864685 757.324829,658.569885 759.005737,657.380066 
	C766.753723,651.895630 772.950500,652.550598 776.185303,659.265381 
	C779.008789,665.126404 773.943542,676.573242 767.753418,678.554871 
	C765.551453,679.259705 764.777710,677.767334 763.754456,676.494202 
	C762.576355,675.028503 762.126099,673.559265 763.846680,672.165833 
	C765.653198,670.702759 767.655762,669.398926 768.502502,667.092773 
	C768.964844,665.833496 769.233826,664.458740 768.159668,663.336914 
	C766.936279,662.059204 765.700134,662.839417 764.554810,663.519043 
	C762.413879,664.789185 760.406067,666.328308 758.164978,667.374573 
	C754.990845,668.856567 751.667725,669.000610 748.715881,666.750061 
	C745.552795,664.338501 744.166443,661.053284 744.838379,657.090149 
	C745.527100,653.027893 747.543274,649.615356 750.445007,646.732727 
	C752.455200,644.735840 754.450989,644.494751 756.489868,647.286926 
z"/>
<path fill="#000000" opacity="1.000000" stroke="none" 
	d="
M527.969360,785.632507 
	C531.971069,783.278137 535.980835,783.552246 539.963196,783.809326 
	C542.052551,783.944275 543.476562,784.942505 543.157837,787.308716 
	C542.879517,789.375061 542.353149,791.322449 539.609802,791.177185 
	C538.946289,791.142029 538.283325,791.084595 537.619446,791.073242 
	C535.920959,791.044189 534.015076,791.017395 533.537964,793.047363 
	C532.974976,795.442993 534.948547,796.142273 536.721924,796.695557 
	C541.543274,798.200195 545.790894,800.261780 546.269653,806.124023 
	C546.708923,811.501160 543.736755,815.475830 538.046204,816.968262 
	C534.785400,817.823364 531.433350,817.665588 528.143738,817.140808 
	C525.253296,816.679626 524.480225,814.736633 524.959412,811.991760 
	C525.455322,809.151794 527.252319,809.177673 529.398804,809.716736 
	C529.719604,809.797241 530.054260,809.857666 530.383606,809.863159 
	C532.938721,809.906311 536.437744,811.024841 537.159363,807.677063 
	C537.780823,804.794312 534.252380,804.605774 532.235779,803.770508 
	C522.058411,799.554871 520.229370,792.550598 527.969360,785.632507 
z"/>
<path fill="#000000" opacity="1.000000" stroke="none" 
	d="
M310.219788,271.082611 
	C313.068939,268.179657 315.259491,268.469482 317.375763,271.508240 
	C322.492889,278.855957 325.358734,287.156342 327.529938,295.699310 
	C328.461029,299.362762 325.029816,300.608582 322.911652,302.556946 
	C320.219727,301.307281 320.209503,298.694397 319.353424,296.681183 
	C318.056580,293.631348 317.117554,290.431488 315.952942,287.322906 
	C313.371429,280.432281 312.218140,279.980530 306.930817,285.133972 
	C303.394226,288.581055 300.911224,288.289032 298.111389,284.611420 
	C296.910614,283.034149 295.405334,281.689453 294.045959,280.231995 
	C292.296936,278.356812 290.449677,276.645294 293.334290,274.052521 
	C295.869507,271.773804 297.739777,270.564117 300.695953,273.826050 
	C304.900543,278.465515 307.171143,273.408264 310.219788,271.082611 
z"/>
<path fill="#000000" opacity="1.000000" stroke="none" 
	d="
M731.839600,309.932739 
	C729.415161,311.911896 727.940491,313.860352 728.011658,316.922577 
	C728.062012,319.091217 726.231567,320.439911 724.386414,321.328613 
	C722.317932,322.324921 721.401001,320.425110 720.298584,319.328186 
	C716.401062,315.449982 712.583496,311.491516 708.730957,307.568024 
	C706.851562,305.654053 706.148926,303.854614 708.521729,301.640869 
	C710.694702,299.613495 712.339111,300.282806 714.054932,302.068817 
	C714.170044,302.188690 714.290161,302.309509 714.426880,302.401978 
	C716.710449,303.946533 717.985901,307.856781 720.998291,307.150696 
	C724.724976,306.277161 727.195679,302.830536 729.716248,299.979706 
	C731.353210,298.128357 731.096558,295.959045 729.506104,294.053955 
	C728.760132,293.160309 727.899414,292.363434 727.121094,291.495453 
	C725.523438,289.713684 723.882019,288.008759 726.161987,285.503998 
	C728.744690,282.666656 730.689087,284.634460 732.492126,286.306793 
	C741.429443,294.596069 742.915771,300.413696 731.839600,309.932739 
z"/>
<path fill="#000000" opacity="1.000000" stroke="none" 
	d="
M425.643616,239.677216 
	C420.934082,241.491364 416.589142,243.161667 412.251892,244.851654 
	C409.917969,245.761063 407.908936,246.286896 406.557159,243.180344 
	C405.187378,240.032501 406.908722,239.121979 409.282806,238.056412 
	C416.779999,234.691406 417.800446,230.095093 412.714294,223.426147 
	C410.298584,220.258682 407.254425,220.786316 404.153473,221.951035 
	C401.736481,222.858871 399.400452,224.019318 398.001373,220.538589 
	C396.561157,216.955521 399.251160,216.283493 401.577972,215.346924 
	C403.273010,214.664642 404.957367,213.940109 406.692535,213.376129 
	C413.915405,211.028458 418.001770,212.897903 420.935059,219.970123 
	C422.016357,222.577164 422.806488,225.303513 423.805573,227.946671 
	C424.381287,229.469772 424.766418,231.182129 426.806824,231.566666 
	C429.551575,232.083923 430.031403,234.425919 430.036530,236.518875 
	C430.042206,238.840546 427.671967,238.925461 425.643616,239.677216 
z"/>
<path fill="#000000" opacity="1.000000" stroke="none" 
	d="
M660.654236,755.999207 
	C662.426208,755.123108 663.973938,754.472656 665.343567,753.556091 
	C667.441895,752.151917 668.929810,752.457703 670.296387,754.603088 
	C671.743225,756.874390 671.459778,758.330688 669.121704,759.923889 
	C663.133789,764.003967 663.111755,764.167114 666.874573,770.839966 
	C668.363953,773.481140 668.451233,775.177124 665.587585,776.956848 
	C662.552368,778.843262 661.189209,777.567261 659.743469,775.042725 
	C655.785828,768.132080 651.769165,761.252991 647.634888,754.447021 
	C645.773621,751.382874 646.177368,749.344604 649.436951,747.632080 
	C652.810425,745.859863 656.035828,743.796631 659.268188,741.768677 
	C661.033569,740.661194 662.535950,740.116943 663.789062,742.414978 
	C664.885132,744.424988 665.859741,746.351868 663.221375,747.953552 
	C661.944946,748.728516 660.646240,749.472900 659.414368,750.314209 
	C655.798340,752.783630 656.004822,754.002380 660.654236,755.999207 
z"/>
<path fill="#000000" opacity="1.000000" stroke="none" 
	d="
M772.430359,407.688965 
	C770.725098,404.709747 771.577148,403.102417 774.319153,401.959198 
	C778.465759,400.230469 782.517151,398.273590 786.611511,396.419342 
	C792.279297,393.852478 792.949463,392.234863 790.745728,386.289398 
	C790.109314,384.572357 789.430115,382.870331 788.732544,381.177032 
	C787.840637,379.012146 787.948730,377.463409 790.588440,376.530945 
	C793.057373,375.658844 794.346008,376.381073 795.210999,378.672791 
	C796.679749,382.563904 798.468018,386.350342 799.695129,390.312927 
	C801.357361,395.680817 799.913208,399.672760 795.020386,402.119934 
	C789.223694,405.019257 783.128235,407.323822 777.147827,409.852203 
	C775.075317,410.728424 773.614380,409.892059 772.430359,407.688965 
z"/>
<path fill="#000000" opacity="1.000000" stroke="none" 
	d="
M752.039551,337.073944 
	C750.799744,337.953857 749.845520,338.620605 748.902710,339.303162 
	C738.659668,346.718903 741.255066,346.644165 732.637207,335.556274 
	C731.339172,333.886139 731.067566,332.234741 733.075012,330.860016 
	C734.743286,329.717651 736.573608,328.303253 738.308411,330.499329 
	C740.973022,333.872589 743.464233,332.419312 746.011047,330.515411 
	C747.875122,329.121826 749.644958,327.600586 751.528625,326.235260 
	C753.411621,324.870361 754.087524,323.290649 752.964355,321.101837 
	C751.680847,318.600647 752.817322,316.985870 755.042664,315.859650 
	C757.572144,314.579468 758.678711,316.465607 759.820984,318.106842 
	C763.457153,323.331543 762.975403,328.083832 758.258423,332.308777 
	C756.406677,333.967316 754.313660,335.356354 752.039551,337.073944 
z"/>
<path fill="#000000" opacity="1.000000" stroke="none" 
	d="
M620.155273,243.357803 
	C621.825012,238.761612 623.254700,234.491928 624.956848,230.333832 
	C626.779541,225.881287 625.598938,222.921219 621.088440,221.265793 
	C619.212769,220.577408 617.353027,219.845703 615.479980,219.150162 
	C613.378906,218.369995 611.941833,217.286011 612.980835,214.693008 
	C613.879395,212.450577 615.217896,211.557373 617.633667,212.529327 
	C621.492859,214.082016 625.491760,215.314957 629.266113,217.044189 
	C634.169800,219.290848 635.985168,222.799667 634.487610,228.042114 
	C632.708252,234.270706 630.299500,240.319992 628.146851,246.441116 
	C627.574585,248.068436 626.492554,249.059418 624.721008,248.316788 
	C622.594849,247.425537 619.384399,247.508896 620.155273,243.357803 
z"/>
<path fill="#000000" opacity="1.000000" stroke="none" 
	d="
M794.699463,624.508484 
	C786.898560,621.445740 779.480103,618.480286 772.022827,615.615906 
	C769.227905,614.542419 767.397705,613.376770 768.735474,609.776367 
	C770.212585,605.801025 772.629089,607.121277 775.129395,608.092224 
	C779.008179,609.598694 782.863403,611.165649 786.735657,612.689209 
	C793.899536,615.507996 793.948181,615.521057 796.764771,608.374756 
	C797.694031,606.017273 798.519958,604.060364 801.733826,605.145874 
	C804.079834,605.938171 805.050415,607.121277 804.141418,609.564392 
	C802.516479,613.931946 800.934570,618.315491 799.341187,622.694763 
	C798.574768,624.801086 797.213135,625.576782 794.699463,624.508484 
z"/>
<path fill="#000000" opacity="1.000000" stroke="none" 
	d="
M718.006348,272.150452 
	C722.230469,278.323120 722.363342,281.475708 718.126648,286.873810 
	C714.635498,291.321960 710.716064,295.432556 707.022827,299.724091 
	C705.131653,301.921661 703.358093,302.103577 701.135376,300.029755 
	C698.901184,297.945129 698.388428,296.133575 700.653503,293.714203 
	C703.725952,290.432495 706.668640,287.022156 709.542542,283.563629 
	C713.421570,278.895508 713.273865,277.669464 708.723022,273.769714 
	C707.964722,273.119904 707.132202,272.554962 706.389526,271.888855 
	C704.859009,270.516113 704.910950,269.065308 706.195190,267.518921 
	C707.457214,265.999329 708.855042,264.697876 710.825745,266.164154 
	C713.225037,267.949341 715.455811,269.960815 718.006348,272.150452 
z"/>
<path fill="#000000" opacity="1.000000" stroke="none" 
	d="
M572.352417,200.283722 
	C577.516663,200.746674 582.149231,202.006821 586.749451,203.392273 
	C591.351257,204.778214 593.510010,207.937592 593.309082,212.708923 
	C593.020691,219.560104 590.756714,226.026001 589.350647,232.658142 
	C588.713013,235.665970 586.542969,234.713593 584.604248,234.331345 
	C582.384888,233.893738 580.865784,233.052994 581.483398,230.338257 
	C582.438843,226.139008 583.269104,221.911316 584.158081,217.696869 
	C585.499268,211.338684 584.410278,209.636780 578.135498,208.291351 
	C577.001221,208.048126 575.866394,207.806213 574.737854,207.538254 
	C569.820007,206.370529 569.398682,205.273590 572.352417,200.283722 
z"/>
<path fill="#000000" opacity="1.000000" stroke="none" 
	d="
M382.223785,249.712372 
	C380.673553,246.721268 379.269775,244.071289 377.946930,241.381516 
	C375.936066,237.292755 373.070129,236.185730 369.023560,238.598358 
	C367.886780,239.276138 366.656921,239.835358 365.410095,240.282516 
	C363.406097,241.001236 362.309570,239.771774 361.427490,238.208389 
	C360.458191,236.490356 360.616791,234.952484 362.349976,233.894592 
	C365.619690,231.898819 368.887085,229.768250 372.651367,228.902802 
	C376.970459,227.909805 380.478668,229.358871 382.966644,233.183228 
	C386.245941,238.223953 388.901031,243.594254 391.635712,248.932358 
	C393.009369,251.613770 392.917175,253.448242 390.039215,255.103058 
	C387.046661,256.823792 385.414154,255.720596 384.066345,253.114288 
	C383.530914,252.078842 382.960785,251.061356 382.223785,249.712372 
z"/>
<path fill="#000000" opacity="1.000000" stroke="none" 
	d="
M679.880920,731.282593 
	C677.126221,727.729309 680.285950,726.755554 682.040405,725.259949 
	C684.270935,723.358398 685.639465,724.890442 686.914062,726.593994 
	C690.602600,731.523499 694.503967,736.311768 697.914429,741.427063 
	C702.569641,748.409241 700.195007,756.095703 692.836975,759.280029 
	C691.056091,760.050781 689.648682,760.192810 688.613403,758.306396 
	C687.661621,756.572021 686.179810,754.645203 688.695923,753.140320 
	C693.038452,750.543274 691.894592,747.502869 689.621582,744.364685 
	C686.498901,740.053345 683.271606,735.817871 679.880920,731.282593 
z"/>
<path fill="#000000" opacity="1.000000" stroke="none" 
	d="
M506.582062,222.943665 
	C505.332031,226.492416 502.670776,225.285339 500.575409,225.097702 
	C498.121796,224.878006 498.262726,222.554077 498.139984,220.815155 
	C497.859589,216.842178 497.777069,212.855255 497.612091,208.874084 
	C497.422943,204.310562 495.499451,201.656616 490.477020,202.244308 
	C489.167786,202.397491 487.821533,202.313797 486.497467,202.242569 
	C484.322937,202.125595 483.862488,200.612686 483.776520,198.790268 
	C483.693329,197.026108 484.359528,195.909637 486.217285,195.713425 
	C489.181549,195.400345 492.153320,194.774277 495.108948,194.842514 
	C501.518494,194.990494 504.543243,197.765121 505.231537,204.170532 
	C505.886658,210.267197 506.155670,216.405319 506.582062,222.943665 
z"/>
<path fill="#000000" opacity="1.000000" stroke="none" 
	d="
M769.714966,332.398346 
	C774.225525,337.926636 774.083496,338.899078 768.520142,342.568024 
	C762.436340,346.580231 756.319763,350.543213 750.267517,354.602325 
	C748.463196,355.812500 746.881470,356.187256 745.753235,353.970642 
	C744.791931,352.082031 741.960083,349.850983 744.770630,347.961029 
	C752.842468,342.533112 760.532104,336.471954 769.714966,332.398346 
z"/>
<path fill="#000000" opacity="1.000000" stroke="none" 
	d="
M365.473389,252.569733 
	C367.177551,255.254730 368.571533,257.718231 370.229950,259.988525 
	C372.237671,262.736969 372.483429,264.742645 369.192780,266.895966 
	C365.636200,269.223297 364.285156,267.344543 362.657074,264.626984 
	C358.995178,258.514496 355.276184,252.428284 351.335571,246.493973 
	C349.326599,243.468628 349.621399,241.576828 352.773956,239.659225 
	C355.893890,237.761475 357.171326,239.364014 358.602844,241.778870 
	C360.714447,245.341141 363.043762,248.774399 365.473389,252.569733 
z"/>
<path fill="#000000" opacity="1.000000" stroke="none" 
	d="
M396.223663,227.885651 
	C398.509918,231.815018 400.240723,235.347168 395.837067,238.653137 
	C393.996704,240.034744 392.540253,240.125351 391.433990,237.919861 
	C389.432526,233.929749 387.489044,229.910599 385.503876,225.912262 
	C384.415161,223.719467 385.481323,222.459625 387.369781,221.600342 
	C389.279297,220.731491 391.324158,219.212784 392.994415,221.881775 
	C394.132446,223.700211 395.049561,225.656921 396.223663,227.885651 
z"/>
<path fill="#000000" opacity="1.000000" stroke="none" 
	d="
M290.776642,295.270233 
	C287.718384,291.999664 290.714264,290.693420 292.336334,289.043945 
	C294.210968,287.137665 295.863098,287.974579 297.497925,289.537506 
	C299.662689,291.606995 301.856567,293.653442 304.140625,295.588623 
	C306.501556,297.588928 306.379578,299.769775 305.088684,302.273315 
	C303.616760,305.127899 301.969330,305.976868 299.388123,303.388885 
	C296.686188,300.679871 293.814972,298.139709 290.776642,295.270233 
z"/>
<path fill="#000000" opacity="1.000000" stroke="none" 
	d="
M667.298706,246.346756 
	C668.237610,244.748398 668.986206,243.463837 669.724426,242.173370 
	C670.912659,240.096268 671.977844,237.944473 675.007629,239.870285 
	C677.498779,241.453705 679.236145,243.102493 677.320740,246.252350 
	C675.863342,248.649063 674.427917,251.069351 673.162659,253.570145 
	C671.203979,257.441498 668.144043,257.806488 664.912842,255.824203 
	C661.057556,253.459061 664.873596,251.384232 665.647583,249.244766 
	C665.979614,248.326981 666.609314,247.516922 667.298706,246.346756 
z"/>
<path fill="#000000" opacity="1.000000" stroke="none" 
	d="
M743.117615,319.012146 
	C740.453491,321.160309 738.266174,320.459991 736.100830,318.771942 
	C734.165466,317.263184 733.627625,315.695038 735.717041,313.910919 
	C738.987610,311.118225 742.297668,308.371094 745.539185,305.545258 
	C747.251099,304.052826 748.562317,304.562012 749.618164,306.232727 
	C750.886353,308.239563 753.216919,310.256012 750.603882,312.737640 
	C748.330444,314.896637 745.809143,316.794586 743.117615,319.012146 
z"/>
<path fill="#000000" opacity="1.000000" stroke="none" 
	d="
M471.568939,204.340393 
	C470.358551,198.050781 471.765411,196.036865 476.484253,196.794968 
	C476.810089,196.847321 477.246063,196.789993 477.443756,196.979187 
	C481.357361,200.724213 479.989014,205.919983 480.907623,210.447769 
	C481.470795,213.223312 479.007965,214.789001 476.489197,215.693909 
	C474.052368,216.569336 473.107239,215.306824 472.793518,213.148193 
	C472.388184,210.359131 472.011169,207.565979 471.568939,204.340393 
z"/>
<path fill="#000000" opacity="1.000000" stroke="none" 
	d="
M765.727844,391.246796 
	C764.745300,388.972443 764.776123,387.386230 767.015259,386.422699 
	C770.802551,384.792938 774.571533,383.119812 778.332092,381.429169 
	C780.732849,380.349884 782.113770,381.373383 782.898804,383.587982 
	C783.605774,385.582245 784.817810,387.796936 781.921936,389.068848 
	C777.996887,390.792786 774.023987,392.414459 770.025940,393.962280 
	C767.828918,394.812866 766.635071,393.490326 765.727844,391.246796 
z"/>
<path fill="#000000" opacity="1.000000" stroke="none" 
	d="
M573.334961,228.186432 
	C572.203918,232.429565 569.564758,230.877289 567.235168,230.370300 
	C564.414490,229.756424 564.695190,227.793060 565.215515,225.726105 
	C566.063843,222.356445 566.943970,218.994400 567.751953,215.615097 
	C568.526672,212.374924 570.627075,212.061096 573.440491,212.727203 
	C576.388977,213.425278 576.441833,215.249008 575.821350,217.636703 
	C574.947632,220.998993 574.214478,224.397797 573.334961,228.186432 
z"/>
<path fill="#000000" opacity="1.000000" stroke="none" 
	d="
M608.367310,242.005463 
	C604.201782,240.785507 603.520447,238.486954 605.163879,235.049347 
	C606.453491,232.351700 607.515686,229.542709 608.619812,226.759705 
	C609.815979,223.744919 611.836243,223.561676 614.666077,224.466553 
	C617.883667,225.495407 617.096558,227.407806 616.328064,229.543427 
	C615.201843,232.672897 614.159302,235.833099 612.995483,238.948196 
	C612.278015,240.868408 611.420837,242.755615 608.367310,242.005463 
z"/>
</svg>